:SAMPLES-PER-SECOND 30
:FULLY-SPECIFIED
:DEGREES
67
root  -9.44456 37.8672 -0.208049 -24.0859 89.1736 -28.8192
RightUpLeg  -32.1392 1.38845 3.45192
RightLeg  56.5638 10.4456 0.113391
RightFoot  -10.429 -0.00913976 0.400975
RightToes  -7.56701e-010 -1.59028e-015 9.93923e-017
Spine  38.8945 -0.403585 -4.0675
Spine1  6.77649 -2.6591 3.07206
HEad  -46.5489 2.10702 4.53496
LeftShoulder1  9.93923e-017 0 1.22299e-017
LeftArm  18.9282 -15.3909 -72.4615
LeftForeArm  -26.3858 -40.7167 25.231
LeftHand  1.20135 8.55091 -0.180662
RightShoulder  1.98785e-016 -4.96962e-017 1.55301e-017
RightArm  58.2086 -40.9002 82.8671
RightForeArm  -52.0535 20.2692 -10.2952
RightHand  1.58563 -12.7378 -7.19381
LeftUpLeg  -8.19565 -15.5605 -2.67367
LeftLeg  31.1038 2.00015 8.00064
LeftFoot  -18.2723 -0.35215 -7.01557
LeftToes  1.17689e-009 -8.96121e-011 5.75302e-011
68
root  -7.90489 38.3009 -0.0313977 -91.8816 88.9221 -95.6548
RightUpLeg  -33.7346 0.368961 4.38525
RightLeg  47.2208 11.1576 1.11601
RightFoot  -8.44707 -0.0239272 0.568233
RightToes  -7.56701e-010 -1.59028e-015 9.93923e-017
Spine  36.8485 -1.18247 -4.97725
Spine1  5.96259 -4.13671 5.42007
HEad  -44.4492 4.58953 3.61948
LeftShoulder1  9.93923e-017 0 1.22299e-017
LeftArm  16.2878 -17.008 -69.6447
LeftForeArm  -26.6254 -42.812 26.4732
LeftHand  1.21761 8.57069 0.863005
RightShoulder  1.98785e-016 -4.96962e-017 1.55301e-017
RightArm  55.3441 -48.6766 79.1437
RightForeArm  -48.2173 19.9844 -9.55568
RightHand  1.5556 -12.7093 -6.74088
LeftUpLeg  -2.11803 -16.6473 -2.3034
LeftLeg  25.8843 3.2694 6.74252
LeftFoot  -15.7207 -0.19647 -7.49608
LeftToes  1.17689e-009 -8.96121e-011 5.75302e-011
69
root  -6.28453 38.5625 0.15462 -125.857 87.8949 -129.331
RightUpLeg  -34.329 -0.926795 5.20472
RightLeg  35.8262 13.4283 2.77278
RightFoot  -5.41558 -0.0854373 1.2578
RightToes  -7.56701e-010 -1.59028e-015 9.93923e-017
Spine  34.3296 -2.29114 -5.6164
Spine1  5.24932 -5.66235 7.31114
HEad  -42.343 6.91885 2.85829
LeftShoulder1  9.93923e-017 0 1.22299e-017
LeftArm  14.3639 -18.4169 -67.0662
LeftForeArm  -27.0278 -44.3638 27.443
LeftHand  1.19725 8.30446 2.80486
RightShoulder  1.98785e-016 -4.96962e-017 1.55301e-017
RightArm  51.0051 -55.4812 73.7026
RightForeArm  -42.6371 19.4738 -8.19109
RightHand  1.59217 -12.8213 -7.07257
LeftUpLeg  3.13013 -17.113 -1.80505
LeftLeg  20.8687 3.32612 5.45214
LeftFoot  -13.3565 -0.0336845 -8.533
LeftToes  1.17689e-009 -8.96121e-011 5.75302e-011
70
root  -4.59704 38.6483 0.360144 -137.901 86.5035 -140.965
RightUpLeg  -33.5993 -2.2719 5.95273
RightLeg  24.0243 16.1686 3.38333
RightFoot  -3.3932 -0.197794 2.35518
RightToes  -7.56701e-010 -1.59028e-015 9.93923e-017
Spine  31.6459 -3.54255 -5.82656
Spine1  5.30123 -7.08081 8.442
HEad  -40.5824 8.83885 2.75113
LeftShoulder1  9.93923e-017 0 1.22299e-017
LeftArm  13.3844 -20.0536 -65.2257
LeftForeArm  -27.1577 -44.7907 27.7172
LeftHand  1.11356 7.71047 5.98431
RightShoulder  1.98785e-016 -4.96962e-017 1.55301e-017
RightArm  50.4837 -60.389 67.3683
RightForeArm  -39.149 19.0672 -7.17612
RightHand  1.61941 -12.8936 -7.34234
LeftUpLeg  8.01782 -12.4819 -0.205425
LeftLeg  15.7874 -2.14898 4.43863
LeftFoot  -10.9969 0.172356 -9.72628
LeftToes  1.17689e-009 -8.96121e-011 5.75302e-011
71
root  -2.84049 38.5689 0.607419 -143.468 85.0385 -145.519
RightUpLeg  -31.561 -2.05364 5.82134
RightLeg  14.3007 14.9963 2.33413
RightFoot  -3.42902 -0.277802 3.29481
RightToes  -7.56701e-010 -1.59028e-015 9.93923e-017
Spine  29.2694 -4.55354 -5.86128
Spine1  5.99466 -8.30278 9.27658
HEad  -39.095 10.1931 3.28175
LeftShoulder1  9.93923e-017 0 1.22299e-017
LeftArm  13.1203 -21.4715 -64.5166
LeftForeArm  -26.9652 -43.9077 27.1441
LeftHand  0.962107 6.95706 9.68129
RightShoulder  1.98785e-016 -4.96962e-017 1.55301e-017
RightArm  52.2635 -63.1221 61.5372
RightForeArm  -36.1992 18.5 -5.45757
RightHand  1.63278 -12.9433 -7.43321
LeftUpLeg  12.7645 -4.50404 3.34423
LeftLeg  11.6482 -11.2698 3.69481
LeftFoot  -8.22489 0.438358 -10.219
LeftToes  1.17689e-009 -8.96121e-011 5.75302e-011
72
root  -0.999018 38.346 0.888899 -146.725 83.6104 -147.69
RightUpLeg  -29.4658 1.43759 4.04568
RightLeg  9.78125 7.25329 1.1424
RightFoot  -3.61484 -0.272986 3.29724
RightToes  -7.56701e-010 -1.59028e-015 9.93923e-017
Spine  27.1024 -5.25017 -5.74857
Spine1  6.60144 -9.337 10.4453
HEad  -37.4074 10.5866 3.62357
LeftShoulder1  9.93923e-017 0 1.22299e-017
LeftArm  13.2803 -21.6794 -65.0004
LeftForeArm  -26.9995 -42.2206 26.0816
LeftHand  0.8137 6.38314 12.3943
RightShoulder  1.98785e-016 -4.96962e-017 1.55301e-017
RightArm  50.6166 -64.2744 56.9676
RightForeArm  -30.7026 17.099 -2.24402
RightHand  1.67052 -13.1532 -7.49666
LeftUpLeg  16.89 -1.21939 6.93955
LeftLeg  9.90861 -15.5402 2.88329
LeftFoot  -5.21894 0.778287 -11.0068
LeftToes  1.17689e-009 -8.96121e-011 5.75302e-011
73
root  0.911099 38.0023 1.16152 -147.741 82.2013 -148.14
RightUpLeg  -28.7221 1.88759 4.66907
RightLeg  11.5422 2.74863 -0.457053
RightFoot  -1.72555 -0.266866 2.70692
RightToes  -7.56701e-010 -1.59028e-015 9.93923e-017
Spine  24.7789 -5.83817 -4.85563
Spine1  6.79191 -10.0151 11.6418
HEad  -35.5654 9.69854 2.90826
LeftShoulder1  9.93923e-017 0 1.22299e-017
LeftArm  13.6791 -20.2426 -66.6609
LeftForeArm  -27.5737 -40.4589 25.0039
LeftHand  0.763409 6.21378 13.0424
RightShoulder  1.98785e-016 -4.96962e-017 1.55301e-017
RightArm  41.2665 -64.4868 54.1441
RightForeArm  -21.357 14.5087 1.37517
RightHand  1.72811 -13.5263 -7.45395
LeftUpLeg  19.2663 -4.49802 8.42458
LeftLeg  11.3783 -12.3871 2.04238
LeftFoot  -2.09353 1.30997 -13.1404
LeftToes  1.17689e-009 -8.96121e-011 5.75302e-011
74
root  2.81739 37.5749 1.39309 -145.152 80.9246 -145.02
RightUpLeg  -28.8437 -1.02493 7.35816
RightLeg  17.3384 4.10428 -1.51891
RightFoot  1.10111 -0.194608 1.58395
RightToes  -7.56701e-010 -1.59028e-015 9.93923e-017
Spine  22.5219 -6.28334 -2.58046
Spine1  7.03861 -9.97206 12.0082
HEad  -34.2214 7.93332 1.30543
LeftShoulder1  9.93923e-017 0 1.22299e-017
LeftArm  14.2971 -17.5681 -69.4762
LeftForeArm  -28.1554 -38.6731 23.9745
LeftHand  0.794339 6.30406 12.0153
RightShoulder  1.98785e-016 -4.96962e-017 1.55301e-017
RightArm  27.4563 -63.7806 54.7527
RightForeArm  -12.3707 11.516 3.96159
RightHand  1.75175 -13.7729 -7.21023
LeftUpLeg  19.5595 -11.4025 8.49128
LeftLeg  17.1118 -4.73553 1.349
LeftFoot  2.9555 2.04281 -14.1498
LeftToes  1.17689e-009 -8.96121e-011 5.75302e-011
75
root  4.60661 37.17 1.59696 -139.883 79.9217 -138.481
RightUpLeg  -28.3475 -3.79208 10.0847
RightLeg  23.9337 7.00778 -1.15385
RightFoot  1.06111 0.041166 -0.376629
RightToes  -7.56701e-010 -1.59028e-015 9.93923e-017
Spine  21.0613 -6.3678 0.523481
Spine1  7.73452 -9.21604 11.5683
HEad  -33.5098 6.12121 -0.030619
LeftShoulder1  9.93923e-017 0 1.22299e-017
LeftArm  15.3558 -14.016 -73.0693
LeftForeArm  -28.2966 -36.2876 22.7272
LeftHand  0.815965 6.35218 10.7678
RightShoulder  1.98785e-016 -4.96962e-017 1.55301e-017
RightArm  15.2767 -61.3374 59.821
RightForeArm  -7.90451 9.46086 5.18238
RightHand  1.71171 -13.7094 -6.75689
LeftUpLeg  17.7833 -10.837 11.1409
LeftLeg  25.7893 -4.40126 2.65528
LeftFoot  12.0562 2.53579 -11.1874
LeftToes  1.17689e-009 -8.96121e-011 5.75302e-011
